<?xml version="1.0" encoding="utf-8"?>
<!-- Generator: Adobe Illustrator 19.0.0, SVG Export Plug-In . SVG Version: 6.00 Build 0)  -->
<svg version="1.1" id="Layer_1" xmlns="http://www.w3.org/2000/svg" xmlns:xlink="http://www.w3.org/1999/xlink" x="0px" y="0px"
	 viewBox="281.6 -147 57.4 326.7" style="enable-background:new 281.6 -147 57.4 326.7;" xml:space="preserve">
<style type="text/css">
	.st0{opacity:4.000000e-002;}
	.st1{fill:#2A2A2A;stroke:#000000;stroke-miterlimit:10;}
</style>
<g id="archeLogoBlackFill" transform="translate(379.578 -1333.407)" class="st0">
	<path id="Path_1" class="st1" d="M-64.3,1360h23v8.5h-32.6v-11.8c0-2.2,0-4.3,0-6.5c0-2.7,0.5-5.4-0.9-8c-3.4-5-10.7-4.5-13.7,1.7
		v24.7h-8.6v-3.2c0-7.1,0-14.3,0-21.4c0-5.6,2.9-9.7,7.6-12.3c2.7-1.6,5.7-2.4,8.9-2.3c2.5,0.3,4.9,1,7.1,2.1
		c2.4,0.9,4.3,2.7,5.5,4.9c0.7,1.1,1.5,2.2,2.3,3.1c3.6-3.1,7.9-5.2,11.9-7.8c3.9-2.9,8-5.5,12.3-7.9c0.3,1.8,0.4,3.6,0.3,5.4
		c0,1.7,0,3.3,0,5.1c-7.7,5-15.2,10-23.1,15.2V1360z"/>
	<path id="Path_2" class="st1" d="M-97.1,1286.7h8.7c0,2.6,0,5.3,0,7.9c0.1,5.6,1.9,10.6,6.1,14.5c2.8,2.6,6.3,4.2,10.1,4.4
		c1,0,1.6,0,2.6,0c1,0,1.4,0,2.3,0c5.2-0.2,10-2.8,12.9-7c2.5-3.4,3.8-7.6,3.7-11.9c0-2.5,0-5.1,0-7.8h9.4c0,2.7,0.3,5.4-0.1,7.9
		c-0.5,2.8-0.4,5.8-1.4,8.5c-1.1,2.9-2,6.1-4.3,8.4c-1.6,1.6-2.8,3.5-4.7,5c-3.5,2.7-7.5,4.7-11.8,5.8c-3.3,0.9-6.8,1.1-10.2,0.6
		c-5.2-0.6-10-2.9-13.7-6.5c-0.9-0.8-1.7-1.6-2.5-2.6c-0.9-1.1-2.2-1.9-2.9-3.2c-0.7-1-1.3-2.1-1.9-3.2c-1.1-3.1-2.6-6.1-2.5-9.5
		C-97,1294.3-97.1,1290.5-97.1,1286.7z"/>
	<path id="Path_4" class="st1" d="M-73.8,1266.2v-21.7H-97v-9.3h55.9v9.3h-23.2v21.6H-73.8z"/>
	<rect id="Rectangle_1" x="-50.6" y="1186.4" class="st1" width="9.4" height="40.1"/>
	<rect id="Rectangle_2" x="-73.8" y="1186.5" class="st1" width="9.4" height="40.1"/>
	<rect id="Rectangle_3" x="-97" y="1186.5" class="st1" width="9.4" height="40.1"/>
	<rect id="Rectangle_4" x="-97" y="1270.7" class="st1" width="56" height="9.5"/>
	<path id="Path_9" class="st1" d="M-92.4,1402.7l-4.6-1.4v-6.2l55.6-20v9.7l-14.9,5.2v15.6l15,5.1v9.7l-24.6-8.7v-18.2L-92.4,1402.7
		z"/>
	<path id="Path_5" class="st1" d="M-97.9,1512.9v-41.3H-87l14.5,41.2L-97.9,1512.9z"/>
	<path id="Path_6" class="st1" d="M-58.9,1461.4h-20.5l-7.2-20l34.7,0.2L-58.9,1461.4z"/>
	<path id="Path_7" class="st1" d="M-65.9,1513l2.2-6.2l-12.3-35.2h24.8l10.7-30.6v72H-65.9z"/>
</g>
</svg>
