<svg xmlns="http://www.w3.org/2000/svg" xmlns:xlink="http://www.w3.org/1999/xlink" width="192.668" height="92.264" viewBox="0 0 192.668 92.264">
  <defs>
    <filter id="Path_11" x="0" y="0" width="192.668" height="92.264" filterUnits="userSpaceOnUse">
      <feOffset input="SourceAlpha"/>
      <feGaussianBlur stdDeviation="3" result="blur"/>
      <feFlood flood-opacity="0.161"/>
      <feComposite operator="in" in2="blur"/>
      <feComposite in="SourceGraphic"/>
    </filter>
  </defs>
  <g id="archeMapMarker" transform="translate(-1045.401 -489.427)">
    <g transform="matrix(1, 0, 0, 1, 1045.4, 489.43)" filter="url(#Path_11)">
      <path id="Path_11-2" data-name="Path 11" d="M7444.614,588.578l-13.748-27.538H7396.9V515.927h173.668v45.114h-112Z" transform="translate(-7387.4 -506.43)" fill="rgba(255,255,255,0.9)" stroke="#d6d6d6" stroke-width="1"/>
    </g>
    <g id="Group_16" data-name="Group 16" transform="translate(1074.102 511.004)" opacity="0.71">
      <g id="Group_8" data-name="Group 8" transform="translate(35.7 0.327)">
        <path id="Path_1" data-name="Path 1" d="M902.921,18.132v8.854h-3.285V14.448H904.2c.841,0,1.675.012,2.516,0a6.262,6.262,0,0,0,3.083-.358,2.992,2.992,0,0,0-.662-5.271H899.6V5.5h1.222c2.749,0,5.491-.018,8.24.006a5.243,5.243,0,0,1,4.74,2.939,6.141,6.141,0,0,1,.894,3.41,7.737,7.737,0,0,1-.823,2.743,4.133,4.133,0,0,1-1.884,2.134,8.947,8.947,0,0,0-1.21.9A50.859,50.859,0,0,1,913.8,22.2a48.729,48.729,0,0,1,3.029,4.728,9.621,9.621,0,0,1-2.093.1c-.644.018-1.288.006-1.95.006-1.944-2.951-3.869-5.873-5.867-8.9Z" transform="translate(-879.674 -5.492)" fill="#2a2a2a"/>
        <path id="Path_2" data-name="Path 2" d="M1207.071,5.556V8.913c-1.013,0-2.027-.018-3.035.006a7.465,7.465,0,0,0-5.581,2.367,6.174,6.174,0,0,0-1.682,3.905c-.018.382-.018.632-.012.984.006.4-.006.537.012.882a6.4,6.4,0,0,0,2.7,4.984,7.456,7.456,0,0,0,4.579,1.419c.978-.006,1.95,0,2.987,0V27.1a18.66,18.66,0,0,1-3.059-.036,17.494,17.494,0,0,1-3.261-.549,8.448,8.448,0,0,1-3.226-1.64,21.86,21.86,0,0,1-1.92-1.813,12.84,12.84,0,0,1-2.224-4.549,10.306,10.306,0,0,1-.245-3.947,8.841,8.841,0,0,1,2.51-5.259,7.937,7.937,0,0,1,.99-.96c.441-.328.721-.841,1.222-1.1a11.952,11.952,0,0,1,1.234-.721,9.557,9.557,0,0,1,3.661-.966C1204.167,5.6,1205.6,5.556,1207.071,5.556Z" transform="translate(-1155.605 -5.55)" fill="#2a2a2a"/>
        <path id="Path_4" data-name="Path 4" d="M1561.1,14.943h8.341V6h3.6V27.53h-3.6V18.61H1561.1Z" transform="translate(-1501.734 -5.97)" fill="#2a2a2a"/>
        <rect id="Rectangle_1" data-name="Rectangle 1" width="15.448" height="3.637" transform="translate(74.671 17.923)" fill="#2a2a2a"/>
        <rect id="Rectangle_2" data-name="Rectangle 2" width="15.448" height="3.637" transform="translate(74.612 8.956)" fill="#2a2a2a"/>
        <rect id="Rectangle_3" data-name="Rectangle 3" width="15.448" height="3.637" transform="translate(74.612 0.03)" fill="#2a2a2a"/>
        <rect id="Rectangle_4" data-name="Rectangle 4" width="3.655" height="21.559" transform="translate(53.994 0.03)" fill="#2a2a2a"/>
        <path id="Path_9" data-name="Path 9" d="M572.209,8.259,572.74,6.5h2.4l7.715,21.416h-3.75L577.1,22.163h-6.022l-1.956,5.771H565.4l3.369-9.492h7.018Z" transform="translate(-565.4 -6.44)" fill="#2a2a2a"/>
      </g>
      <g id="Group_5" data-name="Group 5" transform="translate(0)">
        <path id="Path_5" data-name="Path 5" d="M.8,0H16.689V4.2L.824,9.778Z" transform="translate(-0.752)" fill="#2a2a2a"/>
        <path id="Path_6" data-name="Path 6" d="M333.5,83.978V76.09l7.7-2.79-.077,13.379Z" transform="translate(-313.616 -68.93)" fill="#2a2a2a"/>
        <path id="Path_7" data-name="Path 7" d="M0,145.393l2.385.859L15.937,141.5v9.557l11.781,4.114H0Z" transform="translate(0 -133.063)" fill="#2a2a2a"/>
      </g>
    </g>
  </g>
</svg>
