<svg xmlns="http://www.w3.org/2000/svg" width="33.328" height="20.021" viewBox="0 0 33.328 20.021">
  <path id="webbleLogoSmall" d="M-11.127-6.8a6.984,6.984,0,0,1-.562,2.786A7.131,7.131,0,0,1-13.228-1.74,7.31,7.31,0,0,1-15.513-.211a7.028,7.028,0,0,1-2.8.563,7.189,7.189,0,0,1-2.566-.466,7.088,7.088,0,0,1-2.232-1.362A6.905,6.905,0,0,1-25.321-.114,7.166,7.166,0,0,1-27.9.352a6.965,6.965,0,0,1-2.795-.562A7.338,7.338,0,0,1-32.968-1.74a7.131,7.131,0,0,1-1.538-2.276A6.984,6.984,0,0,1-35.068-6.8V-18.791h4.8V-6.8a2.318,2.318,0,0,0,.185.923,2.389,2.389,0,0,0,.51.756,2.389,2.389,0,0,0,.756.51,2.318,2.318,0,0,0,.923.185,2.381,2.381,0,0,0,.932-.185,2.467,2.467,0,0,0,.773-.51,2.32,2.32,0,0,0,.519-.756,2.318,2.318,0,0,0,.185-.923V-18.791h4.781V-6.8a2.227,2.227,0,0,0,.193.923A2.516,2.516,0,0,0-20-5.124a2.389,2.389,0,0,0,.756.51,2.318,2.318,0,0,0,.923.185,2.381,2.381,0,0,0,.932-.185,2.363,2.363,0,0,0,.765-.51A2.516,2.516,0,0,0-16.1-5.88a2.227,2.227,0,0,0,.193-.923V-18.791h4.781Zm9.387,5.01A3.079,3.079,0,0,1-1.969-.606,2.906,2.906,0,0,1-2.6.352a3.05,3.05,0,0,1-.949.642,2.917,2.917,0,0,1-1.178.237A2.936,2.936,0,0,1-5.9.993,3.13,3.13,0,0,1-6.864.352a2.951,2.951,0,0,1-.65-.958,2.98,2.98,0,0,1-.237-1.187,2.874,2.874,0,0,1,.237-1.16,2.977,2.977,0,0,1,.65-.949A3.13,3.13,0,0,1-5.9-4.544a2.936,2.936,0,0,1,1.169-.237,2.917,2.917,0,0,1,1.178.237A3.05,3.05,0,0,1-2.6-3.9a2.929,2.929,0,0,1,.633.949A2.969,2.969,0,0,1-1.74-1.793Z" transform="translate(35.068 18.791)" fill="#f5f5f5"/>
</svg>
