<?xml version="1.0" encoding="utf-8"?>
<!-- Generator: Adobe Illustrator 19.0.0, SVG Export Plug-In . SVG Version: 6.00 Build 0)  -->
<svg version="1.1" id="Layer_1" xmlns="http://www.w3.org/2000/svg" xmlns:xlink="http://www.w3.org/1999/xlink" x="0px" y="0px"
	 viewBox="0 0 2076.9 370.8" style="enable-background:new 0 0 2076.9 370.8;" xml:space="preserve">
<style type="text/css">
	.st0{fill:none;stroke:#000000;stroke-width:7;stroke-miterlimit:10;}
	.st1{fill:none;}
</style>
<path class="st0" d="M955.3,217.5c0,49.8,0,98.8,0,148.5c-18.5,0-36.2,0-55.1,0c0-69.2,0-139,0-210.3c25.4,0,50.9,0,76.5,0
	c14.1,0,28.1,0.2,42.2,0c17.4-0.3,35.1,3,51.7-6c32-21.7,29.2-69.4-11.1-88.4c-52,0-105.7,0-159.9,0c0-18.5,0-36.2,0-55.7
	c6.8,0,13.7,0,20.5,0c46.1,0,92.1-0.3,138.2,0.1c36.2,0.3,62.6,18.7,79.5,49.3c9.5,17.2,16.4,36,15,57.2c-1.1,16.8-7,31-13.8,46
	c-7.2,15.8-16.2,27.8-31.6,35.8c-7.2,3.7-13.2,9.7-20.3,15.1c19.9,23.5,33.5,51.2,50.7,76.6c17.1,25.3,35.5,50.1,50.8,79.3
	c-13.7,2.9-24.5,1.5-35.1,1.7c-10.8,0.3-21.6,0.1-32.7,0.1c-32.6-49.5-64.9-98.5-98.4-149.3C1002.6,217.5,980.1,217.5,955.3,217.5z"
	/>
<path class="st0" d="M1428.6,5.6c0,19,0,36.8,0,56.3c-17,0-34-0.3-50.9,0.1c-36.4,0.8-68.6,12.5-93.6,39.7
	c-16.9,18.3-26.8,40.5-28.2,65.5c-0.3,6.4-0.3,10.6-0.2,16.5c0.1,6.7-0.1,9,0.2,14.8c1.7,34.9,17.8,63.2,45.3,83.6
	c22.3,16.5,48.6,24,76.8,23.8c16.4-0.1,32.7,0,50.1,0c0,20.1,0,40,0,61c-17.3,0-34.7,2.2-51.3-0.6c-18.2-3.1-37.4-2.7-54.7-9.2
	c-18.9-7-39.4-12.8-54.1-27.5c-10.4-10.4-22.6-18.3-32.2-30.4c-18.2-23.2-29.3-48.3-37.3-76.3c-6.3-22.3-6.4-44.3-4.1-66.2
	c3.4-32.7,18-63.4,42.1-88.2c5.4-5.6,10.2-11.4,16.6-16.1c7.4-5.5,12.1-14.1,20.5-18.5c7.2-3.8,14-9.7,20.7-12.1
	c19.8-7.3,39.1-17,61.4-16.2C1379.9,6.3,1404,5.6,1428.6,5.6z"/>
<path class="st1" d="M379.6,216"/>
<polygon class="st0" points="1561.1,156 1701,156 1701,6 1761.3,6 1761.3,367.1 1700.9,367.1 1700.9,217.5 1561.1,217.5 "/>
<rect x="1817.8" y="306.1" class="st0" width="259.1" height="61"/>
<rect x="1816.8" y="155.7" class="st0" width="259.1" height="61"/>
<rect x="1816.8" y="6" class="st0" width="259.1" height="61"/>
<rect x="1471" y="6" class="st0" width="61.3" height="361.6"/>
<polygon class="st0" points="0.8,0 267.3,0 267.3,70.4 1.2,164 "/>
<polygon class="st0" points="333.5,252.4 333.5,120.1 462.7,73.3 461.4,297.7 "/>
<polygon class="st0" points="0,206.8 40,221.2 267.3,141.5 267.3,301.8 464.9,370.8 0,370.8 "/>
<path class="st0" d="M688.5,6.5"/>
<polygon class="st0" points="679.6,36 688.5,6.5 728.8,6.5 858.2,365.7 795.3,365.7 761.6,269.2 660.6,269.2 627.8,366 565.4,366 
	621.9,206.8 739.6,206.8 "/>
</svg>
